<svg width="228" height="40" viewBox="0 0 228 40" fill="none" xmlns="http://www.w3.org/2000/svg">
<path d="M55.2013 30.8419C52.2903 30.8419 49.8559 29.8626 47.8981 27.9042C45.966 25.9457 45 23.5234 45 20.6372C45 17.7511 45.966 15.3288 47.8981 13.3703C49.8559 11.4118 52.2903 10.4326 55.2013 10.4326C57.0819 10.4326 58.795 10.8836 60.3406 11.7855C61.8863 12.6874 63.0584 13.8986 63.857 15.419L59.5678 17.9315C59.1814 17.1326 58.5889 16.5013 57.7903 16.0374C57.0174 15.5736 56.1416 15.3416 55.1627 15.3416C53.6685 15.3416 52.432 15.8441 51.4531 16.8492C50.4742 17.8284 49.9847 19.0911 49.9847 20.6372C49.9847 22.1576 50.4742 23.4203 51.4531 24.4253C52.432 25.4046 53.6685 25.8942 55.1627 25.8942C56.1673 25.8942 57.0561 25.6751 57.8289 25.2371C58.6275 24.7732 59.22 24.1419 59.6064 23.343L63.9342 25.8169C63.0841 27.3373 61.8863 28.5613 60.3406 29.489C58.795 30.3909 57.0819 30.8419 55.2013 30.8419Z" fill="white"/>
<path d="M80.9524 10.9738H85.9371V30.3007H80.9524V28.0201C79.4583 29.9013 77.3588 30.8419 74.6539 30.8419C72.0778 30.8419 69.8624 29.8626 68.0076 27.9042C66.1786 25.9199 65.264 23.4976 65.264 20.6372C65.264 17.7768 66.1786 15.3674 68.0076 13.409C69.8624 11.4247 72.0778 10.4326 74.6539 10.4326C77.3588 10.4326 79.4583 11.3732 80.9524 13.2543V10.9738ZM71.7558 24.5799C72.7605 25.5849 74.0356 26.0874 75.5813 26.0874C77.1269 26.0874 78.4021 25.5849 79.4068 24.5799C80.4372 23.5492 80.9524 22.2349 80.9524 20.6372C80.9524 19.0395 80.4372 17.7382 79.4068 16.7332C78.4021 15.7024 77.1269 15.187 75.5813 15.187C74.0356 15.187 72.7605 15.7024 71.7558 16.7332C70.7511 17.7382 70.2488 19.0395 70.2488 20.6372C70.2488 22.2349 70.7511 23.5492 71.7558 24.5799Z" fill="white"/>
<path d="M94.9046 16.4626C94.9046 16.978 95.2395 17.4032 95.9093 17.7382C96.6049 18.0474 97.4421 18.3309 98.421 18.5886C99.3999 18.8205 100.379 19.1297 101.358 19.5163C102.337 19.877 103.161 20.4955 103.831 21.3717C104.526 22.2478 104.874 23.343 104.874 24.6572C104.874 26.6415 104.127 28.1748 102.633 29.2571C101.165 30.3136 99.3226 30.8419 97.1072 30.8419C93.14 30.8419 90.4351 29.3086 88.9925 26.2421L93.3204 23.8069C93.8871 25.4819 95.1494 26.3194 97.1072 26.3194C98.8847 26.3194 99.7735 25.7653 99.7735 24.6572C99.7735 24.1419 99.4257 23.7296 98.7301 23.4203C98.0604 23.0853 97.236 22.789 96.2571 22.5313C95.2782 22.2736 94.2993 21.9515 93.3204 21.5649C92.3414 21.1784 91.5042 20.5728 90.8087 19.7482C90.1389 18.8978 89.804 17.8413 89.804 16.5786C89.804 14.6716 90.4995 13.177 91.8906 12.0947C93.3075 10.9866 95.0592 10.4326 97.1458 10.4326C98.7173 10.4326 100.147 10.7934 101.435 11.5149C102.723 12.2107 103.741 13.2157 104.488 14.5299L100.237 16.8492C99.6189 15.5349 98.5885 14.8778 97.1458 14.8778C96.5018 14.8778 95.9608 15.0195 95.5229 15.303C95.1107 15.5865 94.9046 15.973 94.9046 16.4626Z" fill="white"/>
<path d="M118.822 10.4326C120.934 10.4326 122.673 11.1413 124.039 12.5586C125.43 13.9759 126.125 15.9343 126.125 18.434V30.3007H121.141V19.0524C121.141 17.764 120.793 16.7847 120.097 16.1147C119.402 15.419 118.474 15.0711 117.315 15.0711C116.027 15.0711 114.997 15.4705 114.224 16.2693C113.451 17.0682 113.065 18.2665 113.065 19.8642V30.3007H108.08V3.24297H113.065V13.1384C114.275 11.3345 116.194 10.4326 118.822 10.4326Z" fill="white"/>
<path d="M132.855 8.65452C132.03 8.65452 131.309 8.35817 130.691 7.76548C130.098 7.14701 129.802 6.42547 129.802 5.60086C129.802 4.77624 130.098 4.0547 130.691 3.43624C131.309 2.81777 132.03 2.50854 132.855 2.50854C133.705 2.50854 134.426 2.81777 135.019 3.43624C135.637 4.0547 135.946 4.77624 135.946 5.60086C135.946 6.42547 135.637 7.14701 135.019 7.76548C134.426 8.35817 133.705 8.65452 132.855 8.65452ZM130.382 30.3007V10.9738H135.366V30.3007H130.382Z" fill="white"/>
<path d="M150.671 10.4326C152.783 10.4326 154.522 11.1413 155.888 12.5586C157.279 13.9759 157.974 15.9343 157.974 18.434V30.3007H152.989V19.0524C152.989 17.764 152.642 16.7847 151.946 16.1147C151.251 15.419 150.323 15.0711 149.164 15.0711C147.876 15.0711 146.846 15.4705 146.073 16.2693C145.3 17.0682 144.913 18.2665 144.913 19.8642V30.3007H139.929V10.9738H144.913V13.1384C146.124 11.3345 148.043 10.4326 150.671 10.4326Z" fill="white"/>
<path d="M178.692 27.9042C176.708 29.8626 174.287 30.8419 171.427 30.8419C168.568 30.8419 166.146 29.8626 164.163 27.9042C162.205 25.9199 161.226 23.4976 161.226 20.6372C161.226 17.7768 162.205 15.3674 164.163 13.409C166.146 11.4247 168.568 10.4326 171.427 10.4326C174.287 10.4326 176.708 11.4247 178.692 13.409C180.675 15.3674 181.667 17.7768 181.667 20.6372C181.667 23.4976 180.675 25.9199 178.692 27.9042ZM167.679 24.464C168.684 25.469 169.933 25.9715 171.427 25.9715C172.921 25.9715 174.171 25.469 175.175 24.464C176.18 23.459 176.682 22.1834 176.682 20.6372C176.682 19.0911 176.18 17.8155 175.175 16.8105C174.171 15.8055 172.921 15.303 171.427 15.303C169.933 15.303 168.684 15.8055 167.679 16.8105C166.7 17.8155 166.211 19.0911 166.211 20.6372C166.211 22.1834 166.7 23.459 167.679 24.464Z" fill="white"/>
<path d="M197.925 10.9738H202.91V30.3007H197.925V28.1361C196.715 29.94 194.795 30.8419 192.168 30.8419C190.055 30.8419 188.304 30.1332 186.913 28.7159C185.547 27.2986 184.865 25.3401 184.865 22.8405V10.9738H189.849V22.222C189.849 23.5105 190.197 24.5026 190.893 25.1984C191.588 25.8684 192.516 26.2034 193.675 26.2034C194.963 26.2034 195.993 25.804 196.766 25.0051C197.539 24.2063 197.925 23.008 197.925 21.4103V10.9738Z" fill="white"/>
<path d="M218.527 15.7668H214.16V23.8069C214.16 24.4769 214.328 24.9665 214.663 25.2757C214.998 25.5849 215.487 25.7653 216.131 25.8169C216.775 25.8426 217.574 25.8298 218.527 25.7782V30.3007C215.101 30.6873 212.679 30.3651 211.262 29.3344C209.871 28.3036 209.176 26.4611 209.176 23.8069V15.7668H205.814V10.9738H209.176V7.06971L214.16 5.5622V10.9738H218.527V15.7668Z" fill="white"/>
<path d="M1.79185 7.79978C0.693466 8.34404 0 9.45418 0 10.6683V22.2617L18.299 31.3697L27.4637 26.7673L27.45 23.2118C27.4476 22.6036 27.0975 22.0491 26.5457 21.7796L13.6697 15.491V15.491C13.6697 15.49 13.6703 15.4891 13.6711 15.4887L17.5811 13.5976C18.0338 13.3787 18.5636 13.3799 19.0153 13.6007L31.1932 19.5557C31.7466 19.8263 32.0968 20.3836 32.0968 20.9937V28.0608C32.0968 28.6694 31.7483 29.2256 31.1971 29.4969L18.299 35.8464L0 26.7899V29.3829C0 30.6002 0.697069 31.7127 1.79985 32.2554L16.8538 39.6635C17.7641 40.1114 18.8342 40.1122 19.7452 39.6656L34.8625 32.2542C35.9676 31.7124 36.6667 30.5986 36.6667 29.3796V17.7372L18.299 8.68765L9.09625 13.2375L9.05882 13.2609L9.08803 16.7518C9.09308 17.3543 9.43929 17.9032 9.98448 18.1731L22.8352 24.5344L19.0345 26.4851C18.5725 26.7223 18.0234 26.7261 17.558 26.4955L5.46718 20.5044C4.91799 20.2323 4.57126 19.6772 4.57126 19.0702V10.9411C4.57126 10.9411 12.9434 6.81423 18.299 4.16995C25.469 7.69842 36.6667 13.2052 36.6667 13.2052V10.6716C36.6667 9.45578 35.9712 8.34435 34.8705 7.80095L19.7532 0.33833C18.8378 -0.113534 17.7605 -0.112736 16.8458 0.340485L1.79185 7.79978Z" fill="#2F80ED"/>
<path d="M36.6667 17.7372V29.3796C36.6667 30.5986 35.976 31.7124 34.884 32.2542L19.9478 39.6651C19.9478 39.6651 19.5627 39.8451 19.2098 39.9253C18.8568 40.0056 18.518 39.9985 18.518 39.9985V35.8464L31.2623 29.4969C31.807 29.2255 32.1513 28.6694 32.1513 28.0608V20.9937C32.1513 20.3836 31.8053 19.8263 31.2585 19.5557L18.518 13.2504V8.68763L36.6667 17.7372Z" fill="#648FFD"/>
<path d="M36.6667 13.2052C36.6667 13.2052 25.6025 7.6984 18.518 4.16993V0.00550697C18.518 0.00550697 18.8407 -0.00709777 19.2739 0.0857326C19.7071 0.178563 20.4128 0.567081 20.4128 0.567081L34.8919 7.80093C35.9795 8.34433 36.6667 9.45578 36.6667 10.6716V13.2052Z" fill="#648FFD"/>
<path d="M27.5598 23.2103L27.5734 26.7673L18.518 31.3696V26.8627L23.0001 24.5344L18.518 22.2193V17.7372L26.6682 21.779C27.2124 22.0489 27.5575 22.6029 27.5598 23.2103Z" fill="#648FFD"/>
</svg>
